<?xml version="1.0" encoding="UTF-8"?>
<svg width="24px" height="43px" viewBox="0 0 24 43" version="1.1" xmlns="http://www.w3.org/2000/svg" xmlns:xlink="http://www.w3.org/1999/xlink">
    <!-- Generator: Sketch 48.1 (47250) - http://www.bohemiancoding.com/sketch -->
    <title>xhdpi/icon_top_back</title>
    <desc>Created with Sketch.</desc>
    <defs></defs>
    <g id="专家详情-杂志" stroke="none" stroke-width="1" fill="none" fill-rule="evenodd" transform="translate(-30.000000, -63.000000)">
        <g id="Group-5" transform="translate(30.000000, 63.000000)" fill="#FFFFFF">
            <g id="icon_top_back">
                <path d="M2.18213025,24 C1.62522485,24 1.06324769,23.7873547 0.638022833,23.362126 C-0.212674278,22.5114213 -0.212674278,21.129227 0.638022833,20.2785222 L20.2783393,0.638028588 C21.1290364,-0.212676196 22.5112801,-0.212676196 23.3619772,0.638028588 C24.2126743,1.48848597 24.2126743,2.87092763 23.3619772,3.72138501 L3.72141329,23.362126 C3.29618844,23.7873547 2.73928305,24 2.18213025,24 Z" id="Fill-1"></path>
                <path d="M21.8176223,43 C21.260717,43 20.6987398,42.7873569 20.2732675,42.3621326 L0.638022833,22.721594 C-0.212674278,21.870898 -0.212674278,20.488718 0.638022833,19.638022 C1.48847254,18.787326 2.87096359,18.787326 3.72141329,19.638022 L23.3619772,39.2785606 C24.2126743,40.1292566 24.2126743,41.5114366 23.3619772,42.3621326 C22.9367523,42.7873569 22.3795995,43 21.8176223,43 Z" id="Fill-3"></path>
            </g>
        </g>
    </g>
</svg>